<?xml version="1.0" standalone="no"?>
<!DOCTYPE svg PUBLIC "-//W3C//DTD SVG 20010904//EN"
 "http://www.w3.org/TR/2001/REC-SVG-20010904/DTD/svg10.dtd">
<svg version="1.0" xmlns="http://www.w3.org/2000/svg"
 width="500.000000pt" height="500.000000pt" viewBox="0 0 500.000000 500.000000"
 preserveAspectRatio="xMidYMid meet">

<g transform="translate(0.000000,500.000000) scale(0.100000,-0.100000)"
fill="#000000" stroke="none">
<path d="M1270 2661 l0 -231 81 0 c75 0 82 2 109 28 35 36 45 109 35 263 -6
95 -11 114 -30 137 -21 25 -31 27 -109 31 l-86 3 0 -231z m125 -1 c0 -130 -2
-145 -17 -148 -17 -3 -18 9 -18 148 0 139 1 151 18 148 15 -3 17 -18 17 -148z"/>
<path d="M1540 2660 l0 -230 45 0 45 0 0 230 0 230 -45 0 -45 0 0 -230z"/>
<path d="M1680 2661 l0 -231 45 0 45 0 1 108 1 107 22 -105 22 -105 42 -3 42
-3 0 230 0 231 -40 0 -39 0 -3 -102 -3 -103 -20 100 -20 100 -48 3 -47 3 0
-230z"/>
<path d="M1960 2660 l0 -230 45 0 45 0 0 106 c0 104 0 105 23 102 21 -3 22 -8
25 -105 l3 -103 45 0 44 0 -2 228 -3 227 -42 3 -42 3 -3 -83 c-3 -77 -5 -83
-25 -86 -22 -3 -23 -1 -23 82 l0 86 -45 0 -45 0 0 -230z"/>
<path d="M2722 2808 l-2 -88 28 1 c22 1 23 2 5 6 -20 4 -22 11 -26 86 l-3 82
-2 -87z"/>
<path d="M2942 2865 c0 -16 2 -22 5 -12 2 9 2 23 0 30 -3 6 -5 -1 -5 -18z"/>
<path d="M3102 2865 c0 -16 2 -22 5 -12 2 9 2 23 0 30 -3 6 -5 -1 -5 -18z"/>
<path d="M3281 2874 c0 -11 3 -14 6 -6 3 7 2 16 -1 19 -3 4 -6 -2 -5 -13z"/>
<path d="M3318 2798 c-2 -51 -1 -102 3 -113 4 -11 8 31 8 93 1 61 -1 112 -3
112 -2 0 -6 -42 -8 -92z"/>
<path d="M3552 2808 l-2 -88 28 1 c22 1 23 2 5 6 -20 4 -22 11 -26 86 l-3 82
-2 -87z"/>
<path d="M2581 2844 c0 -11 3 -14 6 -6 3 7 2 16 -1 19 -3 4 -6 -2 -5 -13z"/>
<path d="M3291 2824 c0 -11 3 -14 6 -6 3 7 2 16 -1 19 -3 4 -6 -2 -5 -13z"/>
<path d="M2571 2804 c0 -11 3 -14 6 -6 3 7 2 16 -1 19 -3 4 -6 -2 -5 -13z"/>
<path d="M3015 2755 c-4 -31 -5 -58 -3 -61 3 -2 8 21 12 52 4 31 5 59 2 61 -2
3 -8 -21 -11 -52z"/>
<path d="M2932 2765 c0 -16 2 -22 5 -12 2 9 2 23 0 30 -3 6 -5 -1 -5 -18z"/>
<path d="M2466 2765 c-3 -9 -6 -26 -5 -38 1 -16 4 -12 10 12 10 34 6 55 -5 26z"/>
<path d="M3112 2755 c0 -16 2 -22 5 -12 2 9 2 23 0 30 -3 6 -5 -1 -5 -18z"/>
<path d="M3301 2764 c0 -11 3 -14 6 -6 3 7 2 16 -1 19 -3 4 -6 -2 -5 -13z"/>
<path d="M3032 2700 c0 -19 2 -27 5 -17 2 9 2 25 0 35 -3 9 -5 1 -5 -18z"/>
<path d="M2541 2674 c0 -11 3 -14 6 -6 3 7 2 16 -1 19 -3 4 -6 -2 -5 -13z"/>
<path d="M2922 2655 c0 -16 2 -22 5 -12 2 9 2 23 0 30 -3 6 -5 -1 -5 -18z"/>
<path d="M3122 2655 c0 -16 2 -22 5 -12 2 9 2 23 0 30 -3 6 -5 -1 -5 -18z"/>
<path d="M2460 2629 c0 -13 5 -31 10 -39 7 -11 8 -5 4 20 -8 43 -14 51 -14 19z"/>
<path d="M2551 2634 c0 -11 3 -14 6 -6 3 7 2 16 -1 19 -3 4 -6 -2 -5 -13z"/>
<path d="M2724 2535 c0 -60 1 -84 3 -52 2 32 2 81 0 110 -2 29 -3 3 -3 -58z"/>
<path d="M3281 2624 c0 -11 3 -14 6 -6 3 7 2 16 -1 19 -3 4 -6 -2 -5 -13z"/>
<path d="M3554 2535 c0 -60 1 -84 3 -52 2 32 2 81 0 110 -2 29 -3 3 -3 -58z"/>
<path d="M3001 2604 c0 -11 3 -14 6 -6 3 7 2 16 -1 19 -3 4 -6 -2 -5 -13z"/>
<path d="M3042 2600 c0 -14 2 -19 5 -12 2 6 2 18 0 25 -3 6 -5 1 -5 -13z"/>
<path d="M2561 2594 c0 -11 3 -14 6 -6 3 7 2 16 -1 19 -3 4 -6 -2 -5 -13z"/>
<path d="M3291 2574 c0 -11 3 -14 6 -6 3 7 2 16 -1 19 -3 4 -6 -2 -5 -13z"/>
<path d="M2571 2554 c0 -11 3 -14 6 -6 3 7 2 16 -1 19 -3 4 -6 -2 -5 -13z"/>
<path d="M3132 2545 c0 -16 2 -22 5 -12 2 9 2 23 0 30 -3 6 -5 -1 -5 -18z"/>
<path d="M2481 2544 c0 -11 3 -14 6 -6 3 7 2 16 -1 19 -3 4 -6 -2 -5 -13z"/>
<path d="M3301 2524 c0 -11 3 -14 6 -6 3 7 2 16 -1 19 -3 4 -6 -2 -5 -13z"/>
<path d="M2581 2514 c0 -11 3 -14 6 -6 3 7 2 16 -1 19 -3 4 -6 -2 -5 -13z"/>
<path d="M2491 2504 c0 -11 3 -14 6 -6 3 7 2 16 -1 19 -3 4 -6 -2 -5 -13z"/>
<path d="M2994 2496 c-3 -8 -4 -25 -1 -38 3 -17 5 -15 6 10 1 27 5 32 25 32
18 0 26 -6 29 -25 4 -23 4 -23 3 2 -1 23 -6 29 -29 31 -17 2 -29 -2 -33 -12z"/>
<path d="M2591 2474 c0 -11 3 -14 6 -6 3 7 2 16 -1 19 -3 4 -6 -2 -5 -13z"/>
<path d="M3311 2474 c0 -11 3 -14 6 -6 3 7 2 16 -1 19 -3 4 -6 -2 -5 -13z"/>
<path d="M2902 2455 c0 -16 2 -22 5 -12 2 9 2 23 0 30 -3 6 -5 -1 -5 -18z"/>
<path d="M3142 2450 c0 -14 2 -19 5 -12 2 6 2 18 0 25 -3 6 -5 1 -5 -13z"/>
<path d="M1847 2263 c354 -2 932 -2 1285 0 354 1 65 2 -642 2 -707 0 -996 -1
-643 -2z"/>
<path d="M1780 2125 c0 -43 1 -45 28 -44 23 2 24 2 5 6 -27 5 -31 30 -5 36 16
4 16 5 0 6 -26 2 -22 29 5 34 19 4 18 4 -5 6 -27 1 -28 -1 -28 -44z"/>
<path d="M1950 2156 c-30 -37 9 -89 52 -69 21 10 20 11 -12 9 -33 -1 -35 1
-35 29 0 28 2 30 34 28 24 -1 30 1 20 8 -21 13 -45 11 -59 -5z"/>
<path d="M2142 2158 c-27 -27 -7 -78 29 -78 21 0 49 26 49 45 0 35 -53 58 -78
33z m59 -14 c17 -21 0 -49 -32 -49 -24 0 -36 23 -25 51 7 19 40 18 57 -2z"/>
<path d="M2332 2123 c1 -37 2 -41 5 -15 2 18 8 30 13 27 4 -3 6 4 3 15 -10 37
-23 20 -21 -27z"/>
<path d="M2396 2133 c-14 -29 -20 -34 -27 -22 -5 8 -9 10 -9 4 0 -5 4 -17 9
-24 8 -12 12 -9 23 14 l13 29 6 -30 c6 -24 7 -21 8 19 0 26 0 47 -2 47 -2 0
-11 -17 -21 -37z"/>
<path d="M2541 2160 c0 -8 6 -24 14 -34 19 -25 19 -9 0 24 -8 14 -14 19 -14
10z"/>
<path d="M2606 2154 c-4 -9 -4 -19 -1 -22 2 -3 7 3 11 12 4 9 4 19 1 22 -2 3
-7 -3 -11 -12z"/>
<path d="M2740 2125 c0 -43 1 -45 28 -44 23 2 24 2 5 6 -27 5 -31 30 -5 36 16
4 16 5 0 6 -26 2 -22 29 5 34 19 4 18 4 -5 6 -27 1 -28 -1 -28 -44z"/>
<path d="M2901 2123 c1 -27 4 -38 6 -25 6 28 18 28 37 0 9 -12 16 -17 16 -11
0 7 -5 15 -10 18 -8 5 -7 11 1 21 17 20 3 44 -26 44 -23 0 -25 -3 -24 -47z
m49 22 c0 -8 -9 -15 -20 -15 -11 0 -20 7 -20 15 0 8 9 15 20 15 11 0 20 -7 20
-15z"/>
<path d="M3080 2156 c-30 -37 9 -89 52 -69 21 10 20 11 -12 9 -33 -1 -35 1
-35 29 0 28 2 30 34 28 24 -1 30 1 20 8 -21 13 -45 11 -59 -5z"/>
<path d="M3260 2125 c0 -43 1 -45 28 -44 23 2 24 2 5 6 -13 2 -23 11 -23 18 0
7 10 16 23 18 l22 4 -22 2 c-13 0 -23 7 -23 15 0 8 10 17 23 19 19 4 18 4 -5
6 -27 1 -28 -1 -28 -44z"/>
<path d="M2575 2090 c3 -5 8 -10 11 -10 2 0 4 5 4 10 0 6 -5 10 -11 10 -5 0
-7 -4 -4 -10z"/>
<path d="M1847 1973 c354 -2 932 -2 1285 0 354 1 65 2 -642 2 -707 0 -996 -1
-643 -2z"/>
</g>
</svg>
